<svg width="77" height="83" viewBox="0 0 77 83" fill="none" xmlns="http://www.w3.org/2000/svg">
<g filter="url(#filter0_d_367_258)">
<path d="M38.4478 66.5313C56.964 66.5313 71.9744 51.8395 71.9744 33.7164C71.9744 15.5932 56.964 0.901489 38.4478 0.901489C19.9315 0.901489 4.92114 15.5932 4.92114 33.7164C4.92114 51.8395 19.9315 66.5313 38.4478 66.5313Z" fill="white"/>
<path d="M38.4477 1.80302C47.1556 1.80302 55.3452 5.12314 61.5031 11.1504C67.6611 17.1776 71.0532 25.1907 71.0532 33.7164C71.0532 42.2421 67.6611 50.2552 61.5031 56.2824C55.3452 62.3096 47.1583 65.6298 38.4477 65.6298C29.7371 65.6298 21.5502 62.3096 15.3922 56.2824C9.23426 50.2552 5.84212 42.2421 5.84212 33.7164C5.84212 25.1907 9.23426 17.1776 15.3922 11.1504C21.5502 5.12314 29.7371 1.80302 38.4477 1.80302ZM38.4477 0C19.4212 0 4 15.0938 4 33.7164C4 52.339 19.4212 67.4328 38.4477 67.4328C57.4742 67.4328 72.8953 52.339 72.8953 33.7164C72.8953 15.0938 57.4715 0 38.4477 0Z" fill="#0AA411"/>
<path d="M30.5951 22.0432H46.3005C48.0189 20.0083 49.661 17.2677 51.3821 15.2329C49.911 10.5013 48.4373 5.76965 46.9663 1.03545C44.782 0.499693 41.8794 0 38.4478 0C35.4635 0 32.9003 0.376058 30.8924 0.813933C29.1003 5.34466 27.3055 9.87538 25.5134 14.4061C27.1819 16.7165 28.9266 19.7327 30.5951 22.0432Z" fill="#0AA411"/>
<path d="M25.608 38.309C29.6923 41.5132 33.7765 44.72 37.8634 47.9242C37.9055 50.5643 37.4345 53.7067 37.4766 56.3468C33.3344 59.1595 29.1949 61.9723 25.0528 64.785C22.9291 63.9041 20.2264 62.5389 17.4211 60.4217C15.1369 58.6959 13.3842 56.9264 12.0842 55.4144C13.6448 50.6622 15.2053 45.91 16.7632 41.1577C19.5422 40.3747 22.8317 39.092 25.608 38.309Z" fill="#0AA411"/>
<path d="M29.6898 23.0219C27.9608 27.8591 26.2292 32.6938 24.5003 37.531C21.9713 38.448 18.7844 39.0584 16.2554 39.9754C12.2001 37.0957 8.14485 34.2161 4.08691 31.3338C4.26849 28.9847 4.75008 25.9196 5.97114 22.5145C6.86325 20.0315 7.93432 17.9632 8.93169 16.3224C13.9554 16.1498 18.9792 15.9773 24.0029 15.8047C25.6792 18.11 28.0108 20.7192 29.6898 23.0219Z" fill="#0AA411"/>
<path d="M47.2056 23.0219C48.9345 27.8591 50.6661 32.6938 52.3951 37.531C54.9241 38.448 58.1109 39.0584 60.6399 39.9754C64.6926 37.0545 68.7452 34.1336 72.8005 31.2153C72.6374 29.0311 72.2058 26.1849 71.1189 23.0039C70.1716 20.2375 68.9926 17.9863 67.9321 16.2735C62.9189 16.1164 57.9057 15.9618 52.8925 15.8047C51.2161 18.11 48.8845 20.7192 47.2056 23.0219Z" fill="#0AA411"/>
<path d="M51.2871 38.309C47.2028 41.5132 43.1186 44.72 39.0317 47.9242C38.9896 50.5643 39.4607 53.7067 39.4186 56.3468C43.5739 59.1544 47.7292 61.9594 51.8845 64.7669C57.2371 68.0665 62.5872 71.366 67.9399 74.6655C69.6899 75.7447 71.8425 74.0293 71.1136 72.1335C68.9846 66.5905 66.8583 61.0501 64.7293 55.5072C63.1977 50.724 61.6635 45.9409 60.1319 41.1577C57.3529 40.3747 54.0634 39.092 51.2871 38.309Z" fill="#0AA411"/>
</g>
<defs>
<filter id="filter0_d_367_258" x="0" y="0" width="76.8953" height="83" filterUnits="userSpaceOnUse" color-interpolation-filters="sRGB">
<feFlood flood-opacity="0" result="BackgroundImageFix"/>
<feColorMatrix in="SourceAlpha" type="matrix" values="0 0 0 0 0 0 0 0 0 0 0 0 0 0 0 0 0 0 127 0" result="hardAlpha"/>
<feOffset dy="4"/>
<feGaussianBlur stdDeviation="2"/>
<feComposite in2="hardAlpha" operator="out"/>
<feColorMatrix type="matrix" values="0 0 0 0 0 0 0 0 0 0 0 0 0 0 0 0 0 0 0.25 0"/>
<feBlend mode="normal" in2="BackgroundImageFix" result="effect1_dropShadow_367_258"/>
<feBlend mode="normal" in="SourceGraphic" in2="effect1_dropShadow_367_258" result="shape"/>
</filter>
</defs>
</svg>
